<?xml version="1.0" encoding="utf-8"?>
<!-- Generator: Adobe Illustrator 16.0.0, SVG Export Plug-In . SVG Version: 6.00 Build 0)  -->
<!DOCTYPE svg PUBLIC "-//W3C//DTD SVG 1.1//EN" "http://www.w3.org/Graphics/SVG/1.1/DTD/svg11.dtd">
<svg version="1.1" id="Layer_1" xmlns="http://www.w3.org/2000/svg" xmlns:xlink="http://www.w3.org/1999/xlink" x="0px" y="0px"
	 width="964.572px" height="476.683px" viewBox="0 0 964.572 476.683" enable-background="new 0 0 964.572 476.683"
	 xml:space="preserve">
<path fill="#2D2D2D" d="M854.516,112.161c-54.678,0-93.936,25.236-115.666,70.101c-14.721-44.864-50.473-70.101-103.748-70.101
	c-60.286,0-101.646,30.144-121.975,83.419l-3.506-76.409H379.094C371.104,41.634,306.659,0,201.188,0
	C98.841,0,17.525,30.844,6.309,133.892l140.901,43.462c-0.7-45.565,20.329-57.482,42.061-57.482c21.03,0,34.35,14.021,34.35,37.153
	c0,25.236-11.917,37.854-43.463,37.854h-22.432v92.533h31.545c30.845,0,42.762,11.215,43.463,32.947
	c0.7,26.637-16.824,36.451-40.659,36.451c-23.133,0-46.967-9.113-44.864-57.482L0,358.916
	c23.834,86.924,87.625,117.768,197.683,117.768c72.814,0,134.631-23.592,166.83-64.84v57.83h161.231V286.009
	c0-37.854,10.516-54.677,33.647-54.677c16.824,0,24.535,9.113,24.535,40.658v197.684h161.23V286.009
	c0-37.854,10.516-54.677,33.647-54.677c16.824,0,24.535,9.113,24.535,40.658v197.684h161.23V229.93
	C964.572,154.922,923.914,112.161,854.516,112.161z M293.02,239.744v-2.804c9.439,0,49.155-7.755,71.493-42.714v75.639
	C339.197,241.819,301.659,239.744,293.02,239.744z"/>
</svg>
