<?xml version="1.0" encoding="utf-8"?>
<!-- Generator: Adobe Illustrator 16.0.0, SVG Export Plug-In . SVG Version: 6.00 Build 0)  -->
<!DOCTYPE svg PUBLIC "-//W3C//DTD SVG 1.1//EN" "http://www.w3.org/Graphics/SVG/1.1/DTD/svg11.dtd">
<svg version="1.1" id="Layer_1" xmlns="http://www.w3.org/2000/svg" xmlns:xlink="http://www.w3.org/1999/xlink" x="0px" y="0px"
	 width="200.201px" height="26.906px" viewBox="0 0 200.201 26.906" enable-background="new 0 0 200.201 26.906"
	 xml:space="preserve">
<path fill="#262626" d="M0,0.015h3.139v15.595l9.311-8.194h3.99L6.364,16.304l10.499,10.11h-4.071l-9.653-9.276v9.276H0V0.015z
	 M28.264,16.865c-2.519,0-4.268,0.29-5.24,0.863c-0.973,0.579-1.459,1.563-1.459,2.953c0,1.105,0.365,1.986,1.094,2.641
	c0.73,0.648,1.72,0.973,2.977,0.973c1.731,0,3.115-0.614,4.164-1.842c1.048-1.228,1.569-2.854,1.569-4.893v-0.695H28.264z
	 M34.488,15.574v10.84h-3.121V23.53c-0.712,1.152-1.598,2.004-2.664,2.554c-1.06,0.551-2.362,0.822-3.903,0.822
	c-1.939,0-3.486-0.544-4.638-1.639c-1.146-1.089-1.72-2.554-1.72-4.383c0-2.137,0.718-3.747,2.148-4.836
	c1.43-1.083,3.561-1.627,6.398-1.627h4.377v-0.307c0-1.437-0.475-2.548-1.418-3.33c-0.944-0.787-2.27-1.181-3.978-1.181
	c-1.083,0-2.143,0.127-3.167,0.388c-1.031,0.261-2.021,0.654-2.971,1.176V8.284c1.141-0.44,2.253-0.776,3.324-0.996
	c1.077-0.22,2.12-0.33,3.139-0.33c2.75,0,4.8,0.712,6.155,2.137C33.811,10.52,34.488,12.679,34.488,15.574z M51.936,10.334
	c-0.354-0.203-0.73-0.354-1.146-0.452c-0.411-0.099-0.869-0.145-1.367-0.145c-1.76,0-3.115,0.573-4.059,1.72
	c-0.944,1.152-1.419,2.803-1.419,4.951v10.006h-3.139V7.415h3.139v2.953c0.654-1.152,1.512-2.009,2.56-2.57
	c1.054-0.562,2.333-0.84,3.839-0.84c0.214,0,0.452,0.012,0.712,0.04c0.26,0.029,0.544,0.07,0.863,0.128L51.936,10.334z
	 M63.841,16.865c-2.519,0-4.268,0.29-5.24,0.863c-0.973,0.579-1.459,1.563-1.459,2.953c0,1.105,0.365,1.986,1.094,2.641
	c0.73,0.648,1.72,0.973,2.977,0.973c1.731,0,3.115-0.614,4.163-1.842c1.048-1.228,1.569-2.854,1.569-4.893v-0.695H63.841z
	 M70.065,15.574v10.84h-3.121V23.53c-0.712,1.152-1.598,2.004-2.664,2.554c-1.06,0.551-2.362,0.822-3.903,0.822
	c-1.94,0-3.486-0.544-4.638-1.639c-1.146-1.089-1.72-2.554-1.72-4.383c0-2.137,0.718-3.747,2.148-4.836
	c1.43-1.083,3.562-1.627,6.399-1.627h4.377v-0.307c0-1.437-0.475-2.548-1.418-3.33c-0.944-0.787-2.27-1.181-3.978-1.181
	c-1.083,0-2.143,0.127-3.167,0.388c-1.031,0.261-2.021,0.654-2.971,1.176V8.284c1.141-0.44,2.252-0.776,3.324-0.996
	c1.077-0.22,2.12-0.33,3.139-0.33c2.75,0,4.8,0.712,6.155,2.137C69.388,10.52,70.065,12.679,70.065,15.574z M76.383,0.015h3.138
	v15.595l9.312-8.194h3.989l-10.076,8.889l10.499,10.11h-4.071l-9.653-9.276v9.276h-3.138V0.015z M190.632,6.479
	c1.458,0,2.771,0.226,3.941,0.677c1.187,0.458,2.211,1.145,3.075,2.062c0.857,0.914,1.5,1.998,1.926,3.253
	c0.418,1.229,0.627,2.617,0.627,4.164c0,1.543-0.209,2.93-0.627,4.16c-0.426,1.254-1.068,2.338-1.923,3.252l-0.003,0.004
	c-0.863,0.917-1.888,1.605-3.075,2.064c-1.169,0.452-2.482,0.679-3.941,0.679c-1.464,0-2.78-0.227-3.95-0.679
	c-1.188-0.46-2.211-1.148-3.071-2.064v-0.004c-0.859-0.918-1.5-2.002-1.924-3.252c-0.417-1.23-0.625-2.617-0.625-4.16
	c0-1.547,0.208-2.935,0.625-4.164c0.425-1.255,1.066-2.338,1.924-3.253c0.859-0.916,1.883-1.604,3.071-2.062
	C187.852,6.705,189.168,6.479,190.632,6.479z M190.632,10.647c-0.717,0-1.35,0.126-1.896,0.377
	c-0.542,0.249-1.013,0.625-1.415,1.126l0.002,0.002c-0.418,0.525-0.734,1.151-0.945,1.877c-0.219,0.751-0.329,1.619-0.329,2.605
	c0,0.988,0.109,1.858,0.328,2.61c0.211,0.729,0.524,1.354,0.938,1.878l0.002-0.001c0.4,0.504,0.87,0.88,1.408,1.127
	c0.548,0.252,1.184,0.378,1.907,0.378c0.709,0,1.337-0.127,1.883-0.38c0.536-0.249,1.006-0.628,1.409-1.136
	c0.418-0.526,0.734-1.151,0.944-1.875c0.22-0.751,0.329-1.619,0.329-2.602c0-0.976-0.109-1.837-0.328-2.586
	c-0.212-0.726-0.527-1.354-0.944-1.882l-0.001,0.001c-0.403-0.508-0.875-0.888-1.415-1.139
	C191.963,10.775,191.337,10.647,190.632,10.647z M173.614,0h3.121h0.849v0.85v3.69v0.85h-0.849h-3.121h-0.85V4.54V0.85V0H173.614z
	 M173.614,6.907h3.121h0.849v0.849v17.73v0.849h-0.849h-3.121h-0.85v-0.849V7.756V6.907H173.614z M154.277,16.635
	c0,0.997,0.107,1.877,0.321,2.639c0.207,0.737,0.514,1.367,0.918,1.891c0.389,0.501,0.845,0.875,1.369,1.121
	c0.531,0.249,1.148,0.374,1.853,0.374c0.704,0,1.323-0.125,1.855-0.374c0.528-0.247,0.988-0.621,1.38-1.123l-0.002-0.001
	c0.408-0.525,0.716-1.153,0.922-1.885c0.215-0.763,0.323-1.644,0.323-2.642c0-0.996-0.107-1.875-0.323-2.637
	c-0.207-0.731-0.514-1.359-0.922-1.885l0.002-0.002c-0.392-0.501-0.852-0.875-1.38-1.122c-0.532-0.249-1.151-0.374-1.855-0.374
	c-0.704,0-1.322,0.125-1.853,0.374c-0.524,0.246-0.98,0.62-1.369,1.121c-0.404,0.522-0.71,1.152-0.917,1.888
	C154.384,14.76,154.277,15.639,154.277,16.635z M163.216,8.173V0.85V0h0.849h3.121h0.849v0.85v24.637v0.849h-0.849h-3.121h-0.849
	v-0.849v-0.385c-0.387,0.324-0.804,0.601-1.25,0.829c-0.571,0.293-1.191,0.51-1.86,0.652c-0.665,0.141-1.376,0.211-2.132,0.211
	c-1.268,0-2.427-0.239-3.476-0.72c-1.047-0.479-1.971-1.196-2.775-2.15l-0.001,0.002c-0.792-0.939-1.387-2.025-1.783-3.257
	c-0.39-1.213-0.584-2.558-0.584-4.034c0-1.475,0.195-2.818,0.584-4.03c0.396-1.231,0.991-2.317,1.783-3.256l0.001,0.001
	c0.803-0.953,1.728-1.67,2.775-2.149c1.049-0.48,2.208-0.721,3.476-0.721c0.756,0,1.468,0.07,2.132,0.212
	c0.668,0.143,1.289,0.359,1.86,0.652C162.412,7.572,162.829,7.849,163.216,8.173z M128.369,18.488V7.756V6.907h0.849h3.121h0.849
	v0.849V18.38c0,0.766,0.077,1.424,0.23,1.974c0.143,0.509,0.351,0.928,0.625,1.254c0.259,0.312,0.585,0.545,0.978,0.702
	c0.42,0.168,0.929,0.253,1.528,0.253c0.743,0,1.397-0.107,1.962-0.319c0.549-0.206,1.024-0.515,1.426-0.925
	c0.401-0.412,0.704-0.903,0.907-1.475c0.211-0.59,0.316-1.27,0.316-2.037V7.756V6.907h0.849h3.121h0.849v0.849v17.73v0.849h-0.849
	h-3.121h-0.849v-0.849v-0.523c-0.436,0.371-0.901,0.688-1.397,0.947l0,0.001c-0.562,0.296-1.17,0.517-1.825,0.664
	c-0.651,0.146-1.336,0.219-2.056,0.219c-1.194,0-2.255-0.177-3.181-0.53c-0.958-0.366-1.765-0.919-2.42-1.657l0.002-0.001
	c-0.647-0.725-1.13-1.61-1.45-2.656C128.523,20.937,128.369,19.782,128.369,18.488z M119.852,2.72v4.188h5.579h0.849v0.849v2.264
	v0.85h-0.849h-5.579v8.775c0,0.665,0.046,1.195,0.137,1.592v0.004c0.069,0.301,0.149,0.496,0.242,0.586
	c0.097,0.095,0.287,0.176,0.568,0.242c0.366,0.088,0.841,0.132,1.424,0.132h3.208h0.849v0.849v2.438v0.849h-0.849h-3.208
	c-1.269,0-2.355-0.114-3.256-0.342c-0.967-0.244-1.735-0.626-2.3-1.143c-0.575-0.526-0.999-1.245-1.271-2.155
	c-0.252-0.846-0.379-1.862-0.379-3.051v-8.775h-1.444h-0.849v-0.85V7.756V6.907h0.849h1.444V2.72V1.87h0.849h3.138h0.849V2.72z
	 M110.772,8.274v2.756v1.345l-1.214-0.582c-0.413-0.197-0.834-0.37-1.261-0.519c-0.426-0.147-0.862-0.271-1.307-0.369
	c-0.434-0.097-0.884-0.169-1.35-0.219c-0.452-0.048-0.924-0.071-1.415-0.071c-0.73,0-1.357,0.05-1.881,0.149
	c-0.489,0.093-0.884,0.227-1.184,0.398l-0.003,0.004c-0.253,0.145-0.438,0.318-0.558,0.522c-0.116,0.199-0.174,0.445-0.174,0.735
	c0,0.38,0.155,0.678,0.465,0.892l0.007,0.007c0.201,0.143,0.542,0.292,1.024,0.45c0.532,0.174,1.2,0.346,2.002,0.514l1.058,0.22
	l0-0.002c1.146,0.229,2.143,0.512,2.988,0.848c0.878,0.349,1.587,0.756,2.125,1.22c0.568,0.494,0.995,1.083,1.279,1.768
	c0.278,0.67,0.417,1.421,0.417,2.256c0,0.961-0.21,1.833-0.628,2.612c-0.414,0.772-1.027,1.438-1.839,1.994h0
	c-0.784,0.539-1.702,0.94-2.756,1.205c-1.03,0.258-2.189,0.387-3.477,0.387c-1.059,0-2.165-0.096-3.318-0.288l0-0.001
	c-0.562-0.093-1.147-0.214-1.756-0.359c-0.624-0.149-1.234-0.315-1.833-0.495l-0.607-0.183v-0.63v-3.01V20.47l1.22,0.596
	c0.554,0.27,1.1,0.504,1.637,0.701c0.54,0.199,1.076,0.364,1.608,0.498c0.538,0.135,1.061,0.234,1.568,0.299
	c0.501,0.063,1.016,0.096,1.544,0.096c0.687,0,1.281-0.052,1.781-0.155c0.469-0.097,0.862-0.239,1.181-0.428
	c0.273-0.162,0.472-0.347,0.595-0.554c0.116-0.195,0.174-0.431,0.174-0.705c0-0.276-0.043-0.507-0.131-0.692
	c-0.081-0.171-0.207-0.319-0.378-0.445c-0.215-0.158-0.594-0.326-1.139-0.503c-0.604-0.196-1.365-0.388-2.285-0.573h-0.013
	l-1.081-0.237c-1.015-0.199-1.897-0.455-2.645-0.768c-0.789-0.33-1.434-0.726-1.935-1.186l0,0c-0.525-0.478-0.919-1.048-1.184-1.711
	c-0.257-0.646-0.386-1.363-0.386-2.153c0-0.96,0.188-1.823,0.563-2.588l0.001,0.001c0.379-0.771,0.943-1.424,1.69-1.959
	l-0.001-0.002c0.72-0.516,1.582-0.9,2.586-1.154c0.968-0.244,2.068-0.367,3.299-0.367c0.588,0,1.169,0.021,1.742,0.063
	s1.12,0.104,1.645,0.185c0.531,0.082,1.044,0.186,1.541,0.311c0.494,0.123,0.972,0.271,1.436,0.44l0.561,0.205V8.274z"/>
</svg>
